<svg width="43" height="43" viewBox="0 0 43 43" fill="none" xmlns="http://www.w3.org/2000/svg">
<path d="M31.8577 25.5137C31.8127 25.4686 31.7793 25.4132 31.7606 25.3522C31.7419 25.2913 31.7383 25.2267 31.7503 25.1641C31.7609 25.101 31.7875 25.0417 31.8275 24.9918C31.8675 24.9419 31.9196 24.903 31.9788 24.8789L40.721 21.0703C41.2203 20.8445 41.6402 20.474 41.9263 20.0067C42.2124 19.5394 42.3515 18.997 42.3256 18.4497C42.2997 17.9024 42.11 17.3755 41.7811 16.9373C41.4521 16.4991 40.9991 16.1698 40.4808 15.9922L9.21516 5.77734C8.73687 5.62434 8.22568 5.606 7.73765 5.72434C7.24962 5.84267 6.80361 6.09312 6.44852 6.44821C6.09343 6.80329 5.84299 7.24931 5.72465 7.73734C5.60631 8.22536 5.62465 8.73655 5.77766 9.21484L15.9925 40.4805C16.1609 41.0073 16.4867 41.4698 16.926 41.8057C17.3653 42.1417 17.897 42.3349 18.4495 42.3594H18.5823C19.112 42.3598 19.6301 42.2048 20.0724 41.9135C20.5147 41.6222 20.8618 41.2074 21.0706 40.7207L24.8714 31.9785C24.8955 31.9193 24.9344 31.8672 24.9843 31.8272C25.0342 31.7872 25.0935 31.7606 25.1566 31.75C25.2192 31.738 25.2838 31.7415 25.3447 31.7603C25.4057 31.779 25.4611 31.8123 25.5062 31.8574L35.2054 41.5586C35.4593 41.8125 35.7608 42.014 36.0925 42.1514C36.4243 42.2888 36.7799 42.3596 37.139 42.3596C37.4981 42.3596 37.8537 42.2888 38.1855 42.1514C38.5172 42.014 38.8187 41.8125 39.0726 41.5586L41.5511 39.0801C41.805 38.8262 42.0065 38.5247 42.1439 38.193C42.2813 37.8612 42.3521 37.5056 42.3521 37.1465C42.3521 36.7874 42.2813 36.4318 42.1439 36.1C42.0065 35.7683 41.805 35.4668 41.5511 35.2129L31.8577 25.5137ZM39.9007 37.4277L37.4241 39.9043C37.3879 39.9406 37.3448 39.9694 37.2974 39.9891C37.2499 40.0087 37.1991 40.0189 37.1478 40.0189C37.0964 40.0189 37.0456 40.0087 36.9982 39.9891C36.9508 39.9694 36.9077 39.9406 36.8714 39.9043L27.1702 30.2051C26.8552 29.8899 26.4679 29.6564 26.0421 29.525C25.6163 29.3937 25.1648 29.3684 24.7269 29.4514C24.2891 29.5344 23.8781 29.7231 23.5299 30.0012C23.1816 30.2793 22.9066 30.6382 22.7288 31.0469L18.9222 39.7852C18.8953 39.8589 18.8446 39.9216 18.7781 39.9633C18.7116 40.005 18.6331 40.0234 18.555 40.0156C18.4765 40.0155 18.4002 39.9896 18.3378 39.942C18.2753 39.8944 18.2302 39.8276 18.2093 39.752L8.00617 8.48828C7.98886 8.43137 7.98477 8.37126 7.99422 8.31253C8.00366 8.25381 8.0264 8.19801 8.06069 8.1494C8.09497 8.1008 8.13991 8.06066 8.19207 8.03206C8.24423 8.00346 8.30222 7.98715 8.36164 7.98438C8.40477 7.98548 8.44751 7.99272 8.4886 8.00586L39.7523 18.2148C39.8279 18.2358 39.8947 18.2809 39.9423 18.3433C39.9899 18.4057 40.0158 18.482 40.0159 18.5605C40.0234 18.6386 40.0048 18.7169 39.9632 18.7833C39.9215 18.8498 39.859 18.9005 39.7855 18.9277L31.0433 22.7285C30.6347 22.9063 30.2757 23.1813 29.9976 23.5296C29.7195 23.8778 29.5308 24.2887 29.4478 24.7266C29.3648 25.1644 29.3901 25.6159 29.5215 26.0418C29.6528 26.4676 29.8863 26.8549 30.2015 27.1699L39.9007 36.8711C39.937 36.9074 39.9658 36.9505 39.9855 36.9979C40.0052 37.0453 40.0153 37.0961 40.0153 37.1475C40.0153 37.1988 40.0052 37.2496 39.9855 37.2971C39.9658 37.3445 39.937 37.3876 39.9007 37.4238V37.4277ZM16.5784 3.6875V2.125C16.5784 1.8142 16.7019 1.51613 16.9217 1.29636C17.1414 1.07659 17.4395 0.953125 17.7503 0.953125C18.0611 0.953125 18.3592 1.07659 18.579 1.29636C18.7987 1.51613 18.9222 1.8142 18.9222 2.125V3.6875C18.9222 3.9983 18.7987 4.29637 18.579 4.51614C18.3592 4.73591 18.0611 4.85938 17.7503 4.85938C17.4395 4.85938 17.1414 4.73591 16.9217 4.51614C16.7019 4.29637 16.5784 3.9983 16.5784 3.6875ZM0.95344 17.75C0.95344 17.4392 1.07691 17.1411 1.29667 16.9214C1.51644 16.7016 1.81451 16.5781 2.12532 16.5781H3.68781C3.99862 16.5781 4.29669 16.7016 4.51646 16.9214C4.73623 17.1411 4.85969 17.4392 4.85969 17.75C4.85969 18.0608 4.73623 18.3589 4.51646 18.5786C4.29669 18.7984 3.99862 18.9219 3.68781 18.9219H2.12532C1.81451 18.9219 1.51644 18.7984 1.29667 18.5786C1.07691 18.3589 0.95344 18.0608 0.95344 17.75ZM22.9515 4.72656L24.514 1.60156C24.6531 1.3234 24.897 1.11187 25.192 1.01353C25.3381 0.96483 25.4923 0.945385 25.6459 0.956301C25.7995 0.967217 25.9495 1.00828 26.0872 1.07715C26.225 1.14602 26.3478 1.24134 26.4487 1.35767C26.5496 1.474 26.6266 1.60907 26.6753 1.75516C26.724 1.90125 26.7434 2.0555 26.7325 2.2091C26.7216 2.36271 26.6805 2.51266 26.6116 2.65039L25.0491 5.77539C24.9804 5.91313 24.8852 6.03597 24.769 6.13692C24.6528 6.23786 24.5178 6.31493 24.3718 6.36371C24.2258 6.4125 24.0716 6.43205 23.9181 6.42126C23.7645 6.41046 23.6146 6.36952 23.4769 6.30078C23.3391 6.23204 23.2163 6.13685 23.1154 6.02063C23.0144 5.90442 22.9373 5.76946 22.8886 5.62346C22.8398 5.47746 22.8202 5.32328 22.831 5.16973C22.8418 5.01617 22.8827 4.86625 22.9515 4.72852V4.72656ZM6.29914 23.4766C6.36792 23.6143 6.40889 23.7642 6.41971 23.9178C6.43053 24.0714 6.41099 24.2255 6.3622 24.3715C6.31341 24.5176 6.23633 24.6525 6.13536 24.7687C6.03439 24.8849 5.91152 24.9801 5.77375 25.0488L2.64875 26.6113C2.37059 26.7502 2.04866 26.7728 1.75381 26.6743C1.45895 26.5757 1.21531 26.3641 1.07649 26.0859C0.937663 25.8078 0.915026 25.4859 1.01356 25.191C1.11209 24.8961 1.32371 24.6525 1.60188 24.5137L4.72688 22.9512C4.8646 22.8824 5.01453 22.8414 5.1681 22.8306C5.32166 22.8198 5.47585 22.8393 5.62186 22.8881C5.76787 22.9369 5.90284 23.014 6.01905 23.115C6.13526 23.2159 6.23044 23.3388 6.29914 23.4766Z" fill="#219EBC"/>
</svg>
